<?xml version="1.0" standalone="no"?>
<!DOCTYPE svg PUBLIC "-//W3C//DTD SVG 20010904//EN"
 "http://www.w3.org/TR/2001/REC-SVG-20010904/DTD/svg10.dtd">
<svg version="1.0" xmlns="http://www.w3.org/2000/svg"
 width="1024.000000pt" height="1024.000000pt" viewBox="0 0 1024.000000 1024.000000"
 preserveAspectRatio="xMidYMid meet">
<metadata>
Created by potrace 1.11, written by Peter Selinger 2001-2013
</metadata>
<g transform="translate(0.000000,1024.000000) scale(0.100000,-0.100000)"
fill="#000000" stroke="none">
<path d="M4795 10228 c-861 -58 -1663 -318 -2400 -776 -514 -320 -1001 -770
-1376 -1272 -369 -492 -650 -1061 -820 -1655 -261 -914 -261 -1896 0 -2810
307 -1076 960 -2022 1861 -2696 498 -373 1091 -664 1700 -833 873 -243 1847
-243 2720 0 319 89 591 194 905 349 517 256 906 531 1314 930 835 817 1356
1872 1501 3035 112 909 -32 1871 -404 2698 -259 576 -589 1061 -1026 1506
-660 672 -1465 1137 -2386 1376 -489 127 -1085 183 -1589 148z m552 -4044
c238 -48 494 -207 639 -395 170 -222 246 -488 222 -787 -28 -363 -250 -698
-567 -857 -187 -94 -301 -120 -521 -120 -136 1 -181 5 -255 23 -211 53 -400
161 -530 304 -215 237 -317 548 -284 870 51 511 431 908 934 977 91 13 263 6
362 -15z"/>
</g>
</svg>
